<svg width="100%" height="100%" id="svg" viewBox="0 0 1440 400" xmlns="http://www.w3.org/2000/svg" class="transition duration-300 ease-in-out delay-150"><defs><linearGradient id="gradient" x1="40%" y1="1%" x2="60%" y2="99%"><stop offset="5%" stop-color="#eb144c"></stop><stop offset="95%" stop-color="#000000"></stop></linearGradient></defs><path d="M 0,400 C 0,400 0,80 0,80 C 70.6794258373206,79.77033492822966 141.3588516746412,79.54066985645933 240,74 C 338.6411483253588,68.45933014354067 465.244019138756,57.60765550239235 571,60 C 676.755980861244,62.39234449760765 761.6650717703349,78.02870813397129 848,82 C 934.3349282296651,85.97129186602871 1022.0956937799044,78.27751196172248 1121,76 C 1219.9043062200956,73.72248803827752 1329.9521531100477,76.86124401913875 1440,80 C 1440,80 1440,400 1440,400 Z" stroke="none" stroke-width="0" fill="url(#gradient)" fill-opacity="0.265" class="transition-all duration-300 ease-in-out delay-150 path-0"></path><defs><linearGradient id="gradient" x1="40%" y1="1%" x2="60%" y2="99%"><stop offset="5%" stop-color="#eb144c"></stop><stop offset="95%" stop-color="#000000"></stop></linearGradient></defs><path d="M 0,400 C 0,400 0,160 0,160 C 74.55502392344502,166.48803827751198 149.11004784689004,172.97607655502392 257,176 C 364.88995215310996,179.02392344497608 506.11483253588506,178.58373205741628 621,174 C 735.8851674641149,169.41626794258372 824.4306220095693,160.68899521531102 903,165 C 981.5693779904307,169.31100478468898 1050.1626794258373,186.66028708133973 1138,188 C 1225.8373205741627,189.33971291866027 1332.9186602870814,174.66985645933013 1440,160 C 1440,160 1440,400 1440,400 Z" stroke="none" stroke-width="0" fill="url(#gradient)" fill-opacity="0.4" class="transition-all duration-300 ease-in-out delay-150 path-1"></path><defs><linearGradient id="gradient" x1="40%" y1="1%" x2="60%" y2="99%"><stop offset="5%" stop-color="#eb144c"></stop><stop offset="95%" stop-color="#000000"></stop></linearGradient></defs><path d="M 0,400 C 0,400 0,240 0,240 C 131.27272727272728,244.4306220095694 262.54545454545456,248.86124401913875 338,252 C 413.45454545454544,255.13875598086125 433.090909090909,256.9856459330143 526,260 C 618.909090909091,263.0143540669857 785.0909090909092,267.19617224880386 892,262 C 998.9090909090908,256.80382775119614 1046.5454545454545,242.22966507177034 1128,237 C 1209.4545454545455,231.77033492822966 1324.7272727272727,235.88516746411483 1440,240 C 1440,240 1440,400 1440,400 Z" stroke="none" stroke-width="0" fill="url(#gradient)" fill-opacity="0.53" class="transition-all duration-300 ease-in-out delay-150 path-2"></path><defs><linearGradient id="gradient" x1="40%" y1="1%" x2="60%" y2="99%"><stop offset="5%" stop-color="#eb144c"></stop><stop offset="95%" stop-color="#000000"></stop></linearGradient></defs><path d="M 0,400 C 0,400 0,320 0,320 C 78.96650717703349,311.27272727272725 157.93301435406698,302.54545454545456 250,298 C 342.066985645933,293.45454545454544 447.23444976076553,293.0909090909091 563,295 C 678.7655502392345,296.9090909090909 805.129186602871,301.0909090909091 893,307 C 980.870813397129,312.9090909090909 1030.248803827751,320.54545454545456 1115,323 C 1199.751196172249,325.45454545454544 1319.8755980861245,322.72727272727275 1440,320 C 1440,320 1440,400 1440,400 Z" stroke="none" stroke-width="0" fill="url(#gradient)" fill-opacity="1" class="transition-all duration-300 ease-in-out delay-150 path-3"></path></svg>