<svg width="100%" height="100%" id="svg" viewBox="0 0 1440 400" xmlns="http://www.w3.org/2000/svg" class="transition duration-300 ease-in-out delay-150"><path d="M 0,400 C 0,400 0,80 0,80 C 74.03503950532462,89.83442116111303 148.07007901064924,99.66884232222604 212,105 C 275.92992098935076,110.33115767777396 329.7547234627276,111.15905187220886 404,107 C 478.2452765372724,102.84094812779114 572.9110271384403,93.6949501889385 639,89 C 705.0889728615597,84.3050498110615 742.6011679835108,84.0611473720371 805,89 C 867.3988320164892,93.9388526279629 954.6843009275162,104.06046032291309 1029,95 C 1103.3156990724838,85.93953967708691 1164.661628306424,57.69701133631055 1231,52 C 1297.338371693576,46.30298866368945 1368.669185846788,63.151494331844724 1440,80 C 1440,80 1440,400 1440,400 Z" stroke="none" stroke-width="0" fill="#008b8b" fill-opacity="0.265" class="transition-all duration-300 ease-in-out delay-150 path-0"></path><path d="M 0,400 C 0,400 0,160 0,160 C 60.32978357952594,169.8935073857781 120.65956715905187,179.7870147715562 183,179 C 245.34043284094813,178.2129852284438 309.69151494331845,166.7454482995534 387,159 C 464.30848505668155,151.2545517004466 554.5743730676743,147.23119203023018 620,156 C 685.4256269323257,164.76880796976982 726.0109927859842,186.32978357952595 800,184 C 873.9890072140158,181.67021642047405 981.381655788389,155.4496736516661 1056,151 C 1130.618344211611,146.5503263483339 1172.4623840604604,163.87152181380966 1231,169 C 1289.5376159395396,174.12847818619034 1364.7688079697698,167.06423909309518 1440,160 C 1440,160 1440,400 1440,400 Z" stroke="none" stroke-width="0" fill="#008b8b" fill-opacity="0.4" class="transition-all duration-300 ease-in-out delay-150 path-1"></path><path d="M 0,400 C 0,400 0,240 0,240 C 72.44658193060803,236.4108553761594 144.89316386121607,232.82171075231878 215,227 C 285.10683613878393,221.17828924768122 352.8739264857437,213.12401236688424 410,218 C 467.1260735142563,222.87598763311576 513.6111301958091,240.68223978014424 586,250 C 658.3888698041909,259.31776021985576 756.6815527310202,260.14702851253867 829,261 C 901.3184472689798,261.85297148746133 947.66265888011,262.7296461697011 1008,262 C 1068.33734111989,261.2703538302989 1142.66781174854,258.9343868086568 1217,255 C 1291.33218825146,251.06561319134318 1365.66609412573,245.5328065956716 1440,240 C 1440,240 1440,400 1440,400 Z" stroke="none" stroke-width="0" fill="#008b8b" fill-opacity="0.53" class="transition-all duration-300 ease-in-out delay-150 path-2"></path><path d="M 0,400 C 0,400 0,320 0,320 C 77.47028512538648,314.1889385091034 154.94057025077296,308.3778770182068 217,305 C 279.05942974922704,301.6221229817932 325.7080041222947,300.67743043627627 381,296 C 436.2919958777053,291.32256956372373 500.22741326004825,282.91240123668837 585,292 C 669.7725867399517,301.08759876331163 775.3823428375129,327.6729646169701 841,327 C 906.6176571624871,326.3270353830299 932.2432153899003,298.3957402954311 996,295 C 1059.7567846100997,291.6042597045689 1161.6447956028856,312.74407420130535 1242,321 C 1322.3552043971144,329.25592579869465 1381.1776021985572,324.6279628993473 1440,320 C 1440,320 1440,400 1440,400 Z" stroke="none" stroke-width="0" fill="#008b8b" fill-opacity="1" class="transition-all duration-300 ease-in-out delay-150 path-3"></path></svg>